<?xml version="1.0" encoding="UTF-8"?>
<svg id="Logo" xmlns="http://www.w3.org/2000/svg" viewBox="0 0 1080 1080" fill="currentColor">
  <g id="Main">
    <path d="M540,0c-101.11,0-195.71,27.79-276.6,76.14l89.82,89.82c15.06-7.54,30.58-14.17,46.52-19.84,44.87-15.97,92.06-24.08,140.27-24.08,56.48,0,111.21,11.03,162.66,32.79,49.75,21.05,94.47,51.21,132.89,89.62,38.42,38.43,68.57,83.14,89.62,132.89,21.76,51.45,32.79,106.18,32.79,162.66s-11.03,111.21-32.79,162.66c-21.05,49.75-51.21,94.47-89.62,132.89-38.43,38.42-83.14,68.57-132.89,89.62-51.45,21.76-106.18,32.79-162.66,32.79s-111.21-11.03-162.66-32.79c-49.75-21.05-94.47-51.21-132.89-89.62-38.42-38.43-68.57-83.14-89.62-132.89-21.76-51.45-32.79-106.18-32.79-162.66,0-48.2,8.1-95.39,24.08-140.27,5.67-15.94,12.3-31.46,19.84-46.52l-89.82-89.82C27.79,344.29,0,438.89,0,540c0,298.24,241.76,540,540,540s540-241.76,540-540S838.24,0,540,0Z"/>
    <path d="M539.17,243.24c-32.69,0-64.17,5.31-93.56,15.11l107.48,107.48c89.54,7.09,159.99,81.99,159.99,173.35,0,96.04-77.86,173.9-173.9,173.9s-166.26-70.45-173.35-159.99l-107.48-107.48c-9.8,29.4-15.11,60.87-15.11,93.56,0,161.6,129.54,292.95,290.45,295.88,1.83.03,3.62.05,5.44.05,164.63,0,298.93-136.12,295.92-301.41-2.93-160.91-134.29-290.45-295.88-290.45h0Z"/>
    <path d="M578.65,492.36l-86.29,86.29L117.45,203.75c25.42-31.91,54.39-60.88,86.3-86.3l374.9,374.91Z"/>
    <g id="rounded">
      <path d="M539.16,600.18c-15.62,0-31.23-5.96-43.15-17.87l-251.44-251.44c-23.83-23.83-23.83-62.46,0-86.29,23.83-23.83,62.46-23.83,86.29,0l251.44,251.44c23.83,23.83,23.83,62.46,0,86.29-11.91,11.91-27.53,17.87-43.15,17.87Z"/>
    </g>
  </g>
</svg>